<svg xmlns="http://www.w3.org/2000/svg" viewBox="0 0 70 26">
  <defs>
    <linearGradient id="clubmaster-fill" x1="0" y1="0" x2="0" y2="1">
      <stop offset="0%" stop-color="var(--glasses-fill-start, #9F7AEA)" stop-opacity="0.5"/>
      <stop offset="100%" stop-color="var(--glasses-fill-end, #44337A)" stop-opacity="0.85"/>
    </linearGradient>
  </defs>
  <!-- Browline (solid) -->
  <path d="M5 7 L30 7 Q32 7 32 9 L32 10 L5 10 Q3 10 3 8 L3 9 Q3 7 5 7 Z" fill="currentColor" stroke="currentColor" stroke-width="0.5"/>
  <path d="M38 7 L65 7 Q67 7 67 9 L67 10 L38 10 Q38 7 38 7 Z" fill="currentColor" stroke="currentColor" stroke-width="0.5"/>
  <!-- Lenses -->
  <path d="M5 10 L32 10 L31 18 Q30 22 26 22 L10 22 Q6 22 5 18 Z" fill="url(#clubmaster-fill)" stroke="currentColor" stroke-width="1.0"/>
  <path d="M38 10 L67 10 L66 18 Q65 22 61 22 L44 22 Q40 22 39 18 Z" fill="url(#clubmaster-fill)" stroke="currentColor" stroke-width="1.0"/>
  <path d="M32 8 Q35 6 38 8" fill="none" stroke="currentColor" stroke-width="1.4" stroke-linecap="round"/>
  <line x1="3" y1="8" x2="0" y2="6" stroke="currentColor" stroke-width="1.4" stroke-linecap="round"/>
  <line x1="67" y1="8" x2="70" y2="6" stroke="currentColor" stroke-width="1.4" stroke-linecap="round"/>
</svg>
