<svg xmlns="http://www.w3.org/2000/svg" viewBox="0 0 68 28">
  <defs>
    <linearGradient id="heart-fill" x1="0" y1="0" x2="0.2" y2="1">
      <stop offset="0%" stop-color="var(--glasses-fill-start, #9F7AEA)" stop-opacity="0.45"/>
      <stop offset="100%" stop-color="var(--glasses-fill-end, #44337A)" stop-opacity="0.88"/>
    </linearGradient>
  </defs>
  <path d="M17 6 Q10 2 5 8 Q0 14 10 23 L17 28 L24 23 Q34 14 29 8 Q24 2 17 6 Z" transform="translate(0,-3) scale(0.85)" fill="url(#heart-fill)" stroke="currentColor" stroke-width="1.6" stroke-linejoin="round"/>
  <path d="M17 6 Q10 2 5 8 Q0 14 10 23 L17 28 L24 23 Q34 14 29 8 Q24 2 17 6 Z" transform="translate(39,-3) scale(0.85)" fill="url(#heart-fill)" stroke="currentColor" stroke-width="1.6" stroke-linejoin="round"/>
  <path d="M29 7 Q34 4 39 7" fill="none" stroke="currentColor" stroke-width="1.4" stroke-linecap="round"/>
  <line x1="1" y1="7" x2="0" y2="4" stroke="currentColor" stroke-width="1.4" stroke-linecap="round"/>
  <line x1="67" y1="7" x2="68" y2="4" stroke="currentColor" stroke-width="1.4" stroke-linecap="round"/>
</svg>
